<?xml version="1.0" encoding="UTF-8" standalone="no"?><!DOCTYPE svg PUBLIC "-//W3C//DTD SVG 1.1//EN" "http://www.w3.org/Graphics/SVG/1.1/DTD/svg11.dtd"><svg width="100%" height="100%" viewBox="0 0 1167 1292" version="1.1" xmlns="http://www.w3.org/2000/svg" xmlns:xlink="http://www.w3.org/1999/xlink" xml:space="preserve" xmlns:serif="http://www.serif.com/" style="fill-rule:evenodd;clip-rule:evenodd;stroke-linejoin:round;stroke-miterlimit:2;"><g><path d="M682.917,574.917l-52.25,-0c-1.292,-0 -2.042,0.625 -2.292,1.875l-21.625,114.25c-0.208,0.958 -1.042,1.666 -2,1.666l-502.708,0c-1.042,0 -1.875,-1 -1.667,-2.041l23.667,-124.959c0.291,-1.5 1.666,-2.583 3.208,-2.458c43.167,3.417 98.083,-7.333 120.792,-46.542c4.083,-7.083 8.083,-19.125 11.958,-36.083c37.25,-162.458 73.708,-321.792 109.375,-478c0.167,-0.708 0.792,-1.208 1.5,-1.208l413.375,-0c0.708,-0 1.333,0.5 1.417,1.208c32.791,212.25 54.083,350.167 63.875,413.708c9.25,59.917 45.333,127.292 110.666,139.875c9.25,1.792 24.084,2.459 44.459,2.084c66.375,-1.25 119.333,-2.042 158.958,-2.417c1.208,0 2.125,1.083 1.875,2.25l-24.792,131.042c-0.333,1.75 -1.875,3.041 -3.708,3.041l-455.542,0c-2.041,0 -3.625,-1.708 -3.5,-3.75l7.542,-110.791c0.125,-1.834 -0.708,-2.75 -2.583,-2.75Zm-50.834,-23.209c-0.166,0.834 0.5,1.625 1.375,1.625l51.834,0c1.208,0 1.875,-0.583 2,-1.791c11.291,-109.709 25.375,-250.375 42.166,-421.959c1.292,-13.291 1.042,-29.583 -0.75,-48.958c-0.833,-9 -3.333,-9.458 -7.458,-1.417c-6.708,13.167 -11.583,28.167 -14.542,45.042c-31.708,180.417 -56.583,322.917 -74.625,427.458Z" style="fill:#005dab;fill-rule:nonzero;"/><path d="M605,705.042l-3,15.791c-0.167,1.084 -1.125,1.875 -2.25,1.875l-503.5,0c-1.417,0 -2.5,-1.291 -2.25,-2.708l3,-15.792c0.208,-1.083 1.167,-1.875 2.292,-1.875l503.458,0c1.417,0 2.5,1.292 2.25,2.709Z" style="fill:#005dab;fill-rule:nonzero;"/><path d="M676.125,720.5l1.083,-16.208c0.084,-1.125 0.959,-1.959 2.084,-1.959l455.25,0c1.208,0 2.166,1.042 2.083,2.209l-1.125,16.208c-0.083,1.125 -0.958,1.958 -2.083,1.958l-455.25,0c-1.167,0 -2.125,-1 -2.042,-2.208Z" style="fill:#005dab;fill-rule:nonzero;"/><path d="M596.625,742.167l-4.75,22.25c-0.208,1.041 -1.167,1.833 -2.25,1.833l-500.75,0c-1.458,0 -2.583,-1.375 -2.292,-2.833l4.75,-22.25c0.209,-1.042 1.167,-1.834 2.25,-1.834l500.75,0c1.459,0 2.584,1.375 2.292,2.834Z" style="fill:#005dab;fill-rule:nonzero;"/><path d="M1131.04,741.458l-4.25,22.334c-0.167,0.875 -0.959,1.541 -1.875,1.541l-446.417,0c-1.042,0 -1.917,-0.875 -1.917,-1.916l0,-22.334c0,-1.041 0.875,-1.916 1.917,-1.916l450.625,-0c1.208,-0 2.125,1.083 1.917,2.291Z" style="fill:#005dab;fill-rule:nonzero;"/><path d="M76.583,816.375l5.667,-29.875c0.208,-1.042 1.083,-1.75 2.083,-1.75l496.667,0c1.5,0 2.542,1.583 1.917,3l-13.25,29.875c-0.334,0.75 -1.084,1.25 -1.917,1.25l-489.042,0c-1.333,0 -2.333,-1.208 -2.125,-2.5Z" style="fill:#005dab;fill-rule:nonzero;"/><path d="M1122.67,787l-5.792,30.375c-0.167,0.875 -0.958,1.542 -1.875,1.542l-428.667,-0c-0.958,-0 -1.75,-0.709 -1.916,-1.625l-4.542,-30.375c-0.167,-1.167 0.708,-2.209 1.875,-2.209l439,0c1.208,0 2.125,1.084 1.917,2.292Z" style="fill:#005dab;fill-rule:nonzero;"/><path d="M551.625,850l-25.833,35.833c-0.5,0.709 -1.292,1.125 -2.167,1.125l-456.792,0c-1.666,0 -2.916,-1.5 -2.625,-3.166l6.792,-35.834c0.25,-1.25 1.333,-2.166 2.625,-2.166l475.833,-0c2.167,-0 3.417,2.458 2.167,4.208Z" style="fill:#005dab;fill-rule:nonzero;"/><path d="M1110.96,848.333l-7.083,37.417c-0.25,1.208 -1.333,2.125 -2.583,2.125l-389.917,0c-1.042,0 -1.958,-0.625 -2.417,-1.583l-16.416,-37.417c-0.75,-1.708 0.5,-3.667 2.416,-3.667l413.417,0c1.625,0 2.875,1.5 2.583,3.125Z" style="fill:#005dab;fill-rule:nonzero;"/><path d="M59.292,921.75l424.541,0c3.625,0 4,1.125 1.125,3.333c-32.375,25 -68.458,41.667 -108.25,49.959c-17.25,3.625 -44.916,5.416 -82.958,5.458c-94.042,0.042 -176.083,0.042 -246.125,-0.042c-0.792,0 -1.417,-0.75 -1.25,-1.541l10.417,-55.125c0.208,-1.167 1.25,-2.042 2.5,-2.042Z" style="fill:#005dab;fill-rule:nonzero;"/><path d="M1096.71,924.583l-10.166,53.75c-0.25,1.25 -1.292,2.125 -2.542,2.125c-57.792,0.084 -128.167,0.084 -211.083,0.042c-50.167,-0.042 -103.042,-17.958 -135.084,-55.5c-1.083,-1.292 -0.166,-3.292 1.542,-3.292l354.958,0c1.959,0 2.75,0.959 2.375,2.875Z" style="fill:#005dab;fill-rule:nonzero;"/><path d="M951.625,1291.67l-26.125,-0c-16.917,-1.834 -28.583,-4.542 -34.958,-8.167c-28.75,-16.208 -38.959,-41.125 -30.584,-74.708c0.209,-0.75 0.667,-1.125 1.417,-1.125l27.792,-0c0.958,-0 1.375,0.458 1.208,1.416c-5.042,32.5 9.958,50.459 45,53.834c33.708,3.25 82.125,-8.375 80.292,-52.167c-0.209,-5.167 -2.042,-9.542 -5.5,-13.125c-4.084,-4.25 -11.334,-7.792 -21.709,-10.583c-45.125,-12.292 -67.708,-18.459 -67.791,-18.5c-19.584,-5.5 -30.667,-16.209 -33.292,-32.084c-4.375,-26.458 10.5,-55.166 31.042,-73.041c13.875,-12.125 31.541,-19.334 53,-21.709c35.291,-3.875 83.5,2.292 91.541,43.792c1.834,9.458 1.75,19.708 -0.25,30.75c-0.125,0.708 -0.583,1.083 -1.291,1.083l-28.709,0c-0.958,0 -1.333,-0.458 -1.166,-1.375c3.166,-20.375 -3.5,-34.166 -20,-41.291c-31.917,-13.75 -85.917,-3.917 -91.417,39.375c-1.625,12.5 4.167,20.541 17.333,24.125c5.584,1.5 23.209,6 52.875,13.5c22.334,5.625 36.542,10.916 42.667,15.791c29.833,23.792 14.25,73 -10.083,96.084c-17.167,16.291 -40.917,25.666 -71.292,28.125Z" style="fill:#005dab;fill-rule:nonzero;"/><path d="M73.625,1216.71l-40.125,68.125c-0.333,0.584 -0.958,0.917 -1.583,0.917l-29.334,0c-1.416,0 -2.291,-1.542 -1.583,-2.75l138.375,-235c0.333,-0.583 0.958,-0.917 1.583,-0.917l34.417,0c0.917,0 1.667,0.667 1.833,1.584l35.042,234.875c0.167,1.083 -0.667,2.083 -1.792,2.083l-32.375,0c-0.916,0 -1.708,-0.708 -1.833,-1.625l-7.917,-66.583c-0.125,-0.917 -0.916,-1.625 -1.833,-1.625l-91.292,-0c-0.625,-0 -1.25,0.333 -1.583,0.916Zm76.667,-128.625c-0.167,-1.375 -2,-1.791 -2.709,-0.583l-57.125,97c-0.583,1 0.125,2.208 1.25,2.208l68.75,0c0.875,0 1.542,-0.75 1.417,-1.625l-11.583,-97Z" style="fill:#005dab;fill-rule:nonzero;"/><path d="M255.333,1047.12l190.542,0c1,0 1.708,0.917 1.542,1.875l-5.584,26.125c-0.125,0.708 -0.75,1.208 -1.5,1.208l-77.958,0c-0.75,0 -1.375,0.5 -1.5,1.209l-43.917,206.875c-0.125,0.708 -0.75,1.208 -1.5,1.208l-29.75,0c-1,0 -1.708,-0.917 -1.541,-1.875l43.708,-205.542c0.167,-0.958 -0.542,-1.875 -1.542,-1.875l-76.541,0c-1,0 -1.709,-0.916 -1.542,-1.875l5.583,-26.125c0.125,-0.708 0.75,-1.208 1.5,-1.208Z" style="fill:#005dab;fill-rule:nonzero;"/><path d="M592.417,1258.5l-5.5,25.667c-0.167,0.833 -0.917,1.458 -1.792,1.458l-149.583,0c-1.167,0 -2.042,-1.083 -1.792,-2.208l49.917,-234.834c0.166,-0.833 0.916,-1.458 1.791,-1.458l29.209,0c1.166,0 2.041,1.083 1.791,2.208l-43.541,204.75c-0.25,1.125 0.625,2.209 1.791,2.209l115.917,-0c1.167,-0 2.042,1.083 1.792,2.208Z" style="fill:#005dab;fill-rule:nonzero;"/><path d="M772.417,1218.04c-0.209,-1.542 -1.084,-2.292 -2.584,-2.292l-89.541,0.042c-1.75,-0 -3.084,0.75 -3.917,2.25l-36.5,64.083c-1.292,2.25 -3.667,3.667 -6.208,3.667l-26.084,-0.084c-2.708,0 -3.375,-1.166 -2,-3.458l137.75,-233.75c0.542,-0.958 1.375,-1.458 2.5,-1.458l33.375,-0c1.334,-0 2.084,0.625 2.292,1.958l35.083,235.458c0.125,0.834 -0.208,1.209 -1.041,1.209l-33.375,-0.084c-0.875,0 -1.375,-0.416 -1.5,-1.291l-8.25,-66.25Zm-17.875,-130.084c-0.167,-1.333 -1.959,-1.708 -2.625,-0.541l-57.25,97.125c-0.542,0.916 0.125,2.125 1.25,2.125l68.791,-0c0.834,-0 1.5,-0.75 1.375,-1.584l-11.541,-97.125Z" style="fill:#005dab;fill-rule:nonzero;"/></g></svg>