<?xml version="1.0" encoding="utf-8"?>
<!-- Generator: Adobe Illustrator 13.0.0, SVG Export Plug-In . SVG Version: 6.00 Build 14948)  -->
<!DOCTYPE svg PUBLIC "-//W3C//DTD SVG 1.1//EN" "http://www.w3.org/Graphics/SVG/1.1/DTD/svg11.dtd">
<svg version="1.1" id="Layer_1" xmlns="http://www.w3.org/2000/svg" xmlns:xlink="http://www.w3.org/1999/xlink" x="0px" y="0px"
	 width="720px" height="718px" viewBox="-25.054 -22.26 719.999 717.143"
	 enable-background="new -50.108 -44.53 719.999 717.143" xml:space="preserve">
<g>
	<path d="M539.126,408.396c-21.729,28.541-56.059,46.969-94.693,46.969c-65.689,0-118.947-53.258-118.947-118.948
		c0-65.693,53.255-118.948,118.947-118.948c38.637,0,72.967,18.429,94.693,46.971h52.795
		c-26.672-54.541-82.689-92.108-147.488-92.108c-90.618,0-164.087,73.465-164.087,164.087c0,90.62,73.469,164.084,164.087,164.084
		c64.799,0,120.816-37.564,147.486-92.105h-52.793V408.396z"/>
	<path d="M492.529,369.966c-10.41,15.457-28.062,25.619-48.096,25.619c-32.004,0-57.951-25.942-57.951-57.947
		c0-32.004,25.947-57.95,57.951-57.95c18.957,0,35.785,9.107,46.357,23.181h47.252c-13.766-38.401-50.475-65.878-93.609-65.878
		c-54.912,0-99.429,44.516-99.429,99.428c0,54.913,44.517,99.426,99.429,99.426c43.135,0,79.844-27.477,93.609-65.879H492.529
		L492.529,369.966z"/>
</g>
<path d="M188.542,222.417h103.393V165.08H177.867c-32.004,0-57.95,25.943-57.95,57.948v263.718c0,6.961,5.645,12.605,12.607,12.605
	h43.512V360.275h115.898v-43.918H174.817v-83.734C176.59,226.721,182.062,222.417,188.542,222.417z"/>
<g>
	<path d="M116.327,623.158l-27.689-23.162l4.092-4.893l22.28,18.641l10.139-12.119l-19.591-16.389l3.979-4.756l19.591,16.391
		l15.184-18.15l5.407,4.525L116.327,623.158z"/>
	<path d="M79.608,591.078l-25.285-28.051l4.736-4.27l20.684,22.945l11.737-10.576l-19.118-21.211l4.474-4.031l19.118,21.209
		l13.105-11.812l-21.039-23.34l4.604-4.15l25.642,28.445L79.608,591.078z"/>
	<path d="M44.864,550.837l-11.395-17.404c-3.87-5.904-4.746-11.881-2.631-17.918c1.932-5.416,5.89-10.082,11.876-14.004
		c4.624-3.025,9.364-4.904,14.222-5.637c8.579-1.301,15.281,1.734,20.106,9.107L88.4,522.326L44.864,550.837z M72.726,509.38
		c-1.277-1.951-2.536-3.42-3.772-4.402c-2.237-1.732-4.922-2.602-8.052-2.596c-2.505,0.016-5.295,0.666-8.369,1.963
		c-1.83,0.785-3.445,1.639-4.85,2.557c-5.394,3.529-8.896,7.322-10.508,11.373c-1.609,4.051-0.892,8.4,2.158,13.057l6.699,10.23
		l33.431-21.893L72.726,509.38z"/>
	<path d="M14.412,501.574L-1.16,467.169l5.81-2.631l12.737,28.145l14.395-6.514l-11.773-26.014l5.487-2.484l11.772,26.014
		l16.074-7.273l-12.957-28.629l5.648-2.557l15.791,34.893L14.412,501.574z"/>
	<path d="M-6.637,452.044l-6.295-22.803c-1.035-3.756-1.332-7.006-0.89-9.752c0.862-5.219,4.175-8.623,9.933-10.211
		c3.005-0.83,5.636-0.889,7.891-0.176s4.271,2.025,6.048,3.934c0.257-2.176,0.896-3.939,1.921-5.287
		c1.024-1.352,2.978-2.482,5.86-3.4l6.661-2.098c1.894-0.596,3.272-1.145,4.137-1.656c1.481-0.85,2.304-1.857,2.47-3.035
		l1.127-0.311l2.301,8.332c-0.369,0.35-0.878,0.684-1.523,1.008c-0.646,0.326-1.934,0.805-3.866,1.438l-8.254,2.719
		c-3.236,1.059-5.106,2.85-5.612,5.369c-0.266,1.43-0.027,3.494,0.718,6.193l4.148,15.029l21.515-5.938l1.876,6.797L-6.637,452.044z
		 M10.252,423.626c-0.855-3.1-2.17-5.375-3.941-6.828c-1.773-1.451-4.322-1.721-7.646-0.801c-3.574,0.986-5.661,2.92-6.265,5.801
		c-0.31,1.541-0.152,3.439,0.472,5.695l4.455,16.141l17.144-4.73L10.252,423.626z"/>
	<path d="M-22.088,381.91l-0.907-7.908l49.551-24.696l0.881,7.673l-14.867,7.174l2.328,20.285l16.129,3.832l0.824,7.18
		L-22.088,381.91z M7.095,366.795l-21.929,10.58l23.791,5.65L7.095,366.795z"/>
	<path d="M-25.054,344.796l0.133-7.049l45.834,0.872l0.495-26.105l6.199,0.118l-0.631,33.153L-25.054,344.796z"/>
	<path d="M0.703,213.299c4.401-2.366,8.767-3.066,13.094-2.1l-2.092,6.546c-3.427-0.292-6.423,0.351-8.986,1.93
		c-2.563,1.579-4.475,4.335-5.73,8.267c-1.533,4.794-1.056,9.215,1.435,13.261c2.491,4.049,7.282,7.205,14.375,9.474
		c5.81,1.857,10.946,2.032,15.411,0.524c4.466-1.507,7.542-4.901,9.23-10.184c1.555-4.862,0.839-9.172-2.152-12.928
		c-1.57-1.988-3.881-3.835-6.932-5.541l2.093-6.546c5.035,2.246,8.799,5.558,11.292,9.933c3.008,5.252,3.455,11.179,1.343,17.783
		c-1.819,5.691-5.093,9.916-9.818,12.67c-6.242,3.616-14.183,3.884-23.816,0.804c-7.316-2.34-12.703-6.17-16.163-11.491
		c-3.765-5.762-4.484-12.279-2.161-19.549C-6.891,219.952-3.699,215.667,0.703,213.299z"/>
	<path d="M32.446,155.289c5.682-0.903,11.698,0.319,18.051,3.667c6.873,3.624,11.668,8.381,14.382,14.271
		c3.19,6.914,2.786,14.164-1.211,21.747c-3.733,7.082-9.008,11.417-15.825,13.004c-6.419,1.236-13.075,0.036-19.971-3.6
		c-6.226-3.281-10.738-7.637-13.537-13.063c-3.591-6.965-3.336-14.333,0.76-22.105C19.379,161.083,25.164,156.442,32.446,155.289z
		 M58.893,176.258c-2.648-4.532-6.534-8.149-11.656-10.851c-5.415-2.855-10.521-3.737-15.318-2.648
		c-4.797,1.09-8.489,4.089-11.077,8.998c-2.511,4.764-2.924,9.513-1.236,14.247c1.688,4.733,5.718,8.781,12.095,12.144
		c5.103,2.689,10.086,3.667,14.947,2.934c4.864-0.733,8.818-3.994,11.87-9.78C61.415,185.803,61.539,180.791,58.893,176.258z"/>
	<path d="M37.821,132.735l6.293-7.9l43.74,15.708l-25.159-39.036l6.249-7.844l40.707,32.422l-4.193,5.267l-24.026-19.136
		c-0.831-0.663-2.192-1.776-4.085-3.345c-1.892-1.566-3.936-3.227-6.134-4.977l25.077,38.969l-4.354,5.465l-43.679-15.613
		l1.246,0.992c0.998,0.795,2.54,1.979,4.625,3.548c2.087,1.57,3.609,2.738,4.57,3.503l24.026,19.136l-4.194,5.266L37.821,132.735z"
		/>
	<path d="M82.828,79.349l7.691-6.545l39.913,23.811l-17.2-43.138l7.637-6.5l33.729,39.633l-5.127,4.363L129.565,67.58
		c-0.688-0.81-1.812-2.164-3.366-4.065c-1.557-1.901-3.244-3.923-5.066-6.063l17.132,43.058l-5.319,4.527l-39.87-23.706l1.033,1.214
		c0.827,0.971,2.113,2.428,3.857,4.37c1.746,1.941,3.018,3.381,3.813,4.315l19.906,23.392l-5.127,4.362L82.828,79.349z"/>
	<path d="M143.571,32.27l16.104,27.846c1.892,3.271,4.084,5.633,6.572,7.084c3.726,2.21,7.764,2.058,12.111-0.458
		c5.214-3.015,7.735-6.834,7.565-11.454c-0.103-2.506-1.093-5.384-2.973-8.635l-16.105-27.846l6.164-3.566l14.635,25.301
		c3.205,5.54,4.921,10.235,5.149,14.086c0.396,7.028-3.222,12.749-10.854,17.164s-14.384,4.692-20.258,0.831
		c-3.224-2.119-6.438-5.949-9.642-11.489l-14.635-25.301L143.571,32.27z"/>
	<path d="M190.108,7.214l7.785-2.893l38.968,30.382l-14.64-39.416l6.311-2.345l18.119,48.787l-7.425,2.756l-39.312-30.2
		l14.621,39.37L208.226,56L190.108,7.214z"/>
	<path d="M246.417-11.477l6.919-1.686L265.653,37.4l-6.918,1.686L246.417-11.477z"/>
	<path d="M306.661-17.871c3.991,3.005,6.456,6.676,7.393,11.01l-6.82,0.843c-1.17-3.234-3.01-5.685-5.518-7.35
		c-2.509-1.665-5.812-2.245-9.909-1.739c-4.996,0.617-8.81,2.904-11.44,6.861c-2.63,3.957-3.49,9.63-2.576,17.021
		c0.747,6.053,2.74,10.791,5.98,14.213c3.241,3.422,7.611,4.793,13.114,4.113c5.066-0.626,8.678-3.082,10.837-7.371
		c1.146-2.26,1.855-5.131,2.125-8.615l6.821-0.843c0.068,5.513-1.362,10.318-4.288,14.414c-3.508,4.932-8.703,7.822-15.584,8.673
		c-5.933,0.732-11.139-0.47-15.618-3.607c-5.899-4.152-9.47-11.248-10.709-21.288c-0.941-7.623,0.278-14.119,3.661-19.49
		c3.654-5.832,9.27-9.217,16.846-10.152C297.438-21.978,302.667-20.875,306.661-17.871z"/>
	<path d="M344.549-22.265l7.953,0.292l16.966,52.702l-7.718-0.284l-4.857-15.776l-20.403-0.75l-6.211,15.371l-7.225-0.266
		L344.549-22.265z M355.104,8.859l-7.164-23.271l-9.164,22.67L355.104,8.859z"/>
	<path d="M415.72-13.831l-1.031,6.113l-17.291-2.919l-7.629,45.204l-7.02-1.185l7.627-45.203l-17.291-2.918l1.031-6.113
		L415.72-13.831z"/>
	<path d="M427.96-10.148l6.861,1.902l-13.895,50.152l-6.863-1.902L427.96-10.148z"/>
	<path d="M488.148,19.569c1.418,5.575,0.752,11.68-2.002,18.311c-2.979,7.177-7.275,12.386-12.893,15.629
		c-6.594,3.811-13.85,4.072-21.766,0.785c-7.396-3.07-12.195-7.926-14.398-14.569c-1.816-6.279-1.234-13.017,1.756-20.215
		c2.697-6.5,6.621-11.393,11.77-14.679c6.605-4.212,13.969-4.635,22.082-1.267C481.181,7.089,486.332,12.423,488.148,19.569z
		 M469.689,47.823c4.27-3.052,7.516-7.251,9.736-12.6c2.346-5.654,2.758-10.82,1.234-15.496c-1.525-4.676-4.852-8.08-9.975-10.207
		c-4.975-2.064-9.74-2.04-14.303,0.072c-4.559,2.113-8.219,6.499-10.982,13.158c-2.209,5.327-2.73,10.378-1.555,15.153
		c1.18,4.774,4.785,8.417,10.828,10.924C460.412,51.209,465.416,50.875,469.689,47.823z"/>
	<path d="M510.552,22.862l6.998,4.471l-0.77,49.406l22.641-35.432l5.672,3.624L517.07,88.784l-6.674-4.264l0.418-49.572
		l-22.613,35.39l-5.672-3.625L510.552,22.862z"/>
	<path d="M540.167,85.934c-1.848,2.308-2.943,4.541-3.291,6.704c-0.621,4.072,1.191,8.003,5.432,11.794
		c1.898,1.697,3.883,2.963,5.945,3.796c3.996,1.607,7.252,1.003,9.771-1.814c1.889-2.113,2.596-4.189,2.117-6.232
		c-0.508-2.039-1.852-4.62-4.033-7.742l-4.029-5.741c-2.633-3.749-4.225-6.706-4.771-8.876c-0.938-3.753,0.031-7.242,2.912-10.465
		c3.119-3.485,6.85-5.298,11.193-5.437c4.348-0.137,8.672,1.717,12.973,5.562c3.959,3.538,6.443,7.526,7.457,11.963
		c1.008,4.438-0.412,8.812-4.27,13.127l-4.938-4.417c1.604-2.303,2.488-4.381,2.652-6.229c0.271-3.396-1.428-6.742-5.109-10.032
		c-2.971-2.656-5.689-3.914-8.152-3.773c-2.465,0.141-4.469,1.073-6.012,2.8c-1.701,1.902-2.178,3.979-1.428,6.232
		c0.504,1.463,2.15,4.204,4.943,8.222l4.158,5.955c2.012,2.871,3.238,5.444,3.691,7.72c0.766,3.948-0.395,7.648-3.479,11.1
		c-3.842,4.297-8.111,6.005-12.812,5.13c-4.701-0.877-9.068-3.119-13.104-6.726c-4.705-4.207-7.287-8.731-7.744-13.576
		c-0.475-4.827,1.186-9.314,4.988-13.458L540.167,85.934z"/>
	<path d="M654.148,179.827c-1.307,4.824-3.797,8.477-7.477,10.954l-3.314-6.021c2.566-2.289,4.158-4.905,4.773-7.854
		c0.613-2.946-0.074-6.229-2.066-9.845c-2.428-4.408-5.967-7.1-10.619-8.071c-4.652-0.974-10.238,0.336-16.76,3.93
		c-5.344,2.942-9,6.555-10.975,10.833c-1.975,4.279-1.623,8.847,1.053,13.705c2.463,4.472,6.086,6.912,10.869,7.323
		c2.521,0.226,5.453-0.183,8.789-1.228l3.314,6.021c-5.094,2.113-10.082,2.57-14.979,1.373c-5.881-1.424-10.494-5.175-13.84-11.247
		c-2.883-5.235-3.701-10.515-2.453-15.84c1.666-7.021,6.928-12.971,15.787-17.852c6.73-3.705,13.213-4.987,19.455-3.842
		c6.773,1.225,12,5.182,15.686,11.867C654.537,169.738,655.455,175.002,654.148,179.827z"/>
	<path d="M674.703,243.567c-3.262,4.74-8.293,8.259-15.096,10.555c-7.361,2.484-14.113,2.682-20.254,0.591
		c-7.209-2.453-12.184-7.739-14.924-15.863c-2.562-7.587-2.07-14.396,1.479-20.429c3.529-5.505,8.984-9.501,16.367-11.995
		c6.67-2.25,12.934-2.521,18.797-0.81c7.521,2.196,12.689,7.458,15.498,15.781C679.505,230.104,678.884,237.494,674.703,243.567z
		 M641.285,248.284c5.111,1.205,10.408,0.881,15.895-0.971c5.803-1.959,9.959-5.051,12.475-9.276
		c2.516-4.227,2.887-8.97,1.109-14.229c-1.723-5.102-4.879-8.672-9.473-10.712c-4.594-2.039-10.305-1.906-17.137,0.399
		c-5.465,1.846-9.605,4.782-12.424,8.812c-2.818,4.03-3.182,9.143-1.09,15.344C632.628,243.536,636.175,247.08,641.285,248.284z"/>
	<path d="M687.529,263.922l1.352,10.009l-41.602,20.723l45.594,8.833l1.346,9.938l-51.574,6.969l-0.898-6.671l30.438-4.113
		c1.055-0.143,2.801-0.355,5.238-0.637c2.439-0.282,5.055-0.611,7.84-0.988l-45.488-8.845l-0.938-6.923l41.49-20.743l-1.58,0.214
		c-1.264,0.172-3.184,0.467-5.762,0.886c-2.576,0.42-4.475,0.713-5.689,0.876l-30.439,4.114l-0.898-6.67L687.529,263.922z"/>
	<path d="M694.945,334.091l-0.604,10.082l-44.82,12.301l43.031,17.469l-0.6,10.012l-51.949-3.119l0.404-6.719l30.66,1.84
		c1.059,0.066,2.814,0.193,5.264,0.387c2.447,0.195,5.076,0.378,7.881,0.546l-42.924-17.461l0.418-6.973l44.715-12.345l-1.594-0.096
		c-1.273-0.077-3.215-0.157-5.824-0.243c-2.609-0.085-4.527-0.165-5.752-0.239l-30.66-1.84l0.402-6.719L694.945,334.091z"/>
	<path d="M688.136,402.732l-1.35,6.992l-51.098-9.873l1.352-6.992L688.136,402.732z"/>
	<path d="M648.322,420.585c-2.865-0.729-5.355-0.805-7.465-0.227c-3.965,1.121-6.795,4.395-8.492,9.824
		c-0.762,2.432-1.094,4.758-0.998,6.984c0.188,4.301,2.086,7.016,5.693,8.146c2.703,0.846,4.887,0.629,6.549-0.648
		c1.646-1.309,3.441-3.6,5.381-6.875l3.561-6.041c2.324-3.949,4.359-6.623,6.107-8.016c3.029-2.41,6.607-2.971,10.732-1.68
		c4.463,1.396,7.656,4.045,9.58,7.947c1.92,3.898,2.021,8.605,0.301,14.109c-1.588,5.066-4.189,8.979-7.811,11.734
		c-3.621,2.754-8.195,3.271-13.717,1.543l1.979-6.324c2.76,0.508,5.018,0.453,6.768-0.16c3.207-1.156,5.547-4.088,7.021-8.799
		c1.189-3.805,1.213-6.799,0.064-8.988c-1.146-2.186-2.826-3.621-5.035-4.314c-2.436-0.76-4.521-0.334-6.264,1.279
		c-1.127,1.061-2.939,3.695-5.443,7.9l-3.699,6.252c-1.785,3.014-3.619,5.199-5.502,6.551c-3.279,2.332-7.127,2.807-11.545,1.424
		c-5.498-1.723-8.82-4.902-9.967-9.545s-0.912-9.547,0.703-14.711c1.887-6.025,4.938-10.246,9.16-12.666
		c4.201-2.43,8.971-2.77,14.312-1.023L648.322,420.585z"/>
	<path d="M631.359,468.718c-2.713-1.172-5.16-1.639-7.334-1.398c-4.09,0.48-7.404,3.27-9.938,8.359
		c-1.133,2.281-1.828,4.527-2.084,6.74c-0.492,4.275,0.951,7.256,4.336,8.939c2.537,1.262,4.727,1.393,6.57,0.395
		c1.83-1.031,3.963-3.014,6.395-5.941l4.469-5.404c2.918-3.533,5.352-5.85,7.297-6.949c3.371-1.902,6.992-1.889,10.863,0.035
		c4.188,2.084,6.924,5.201,8.205,9.355c1.283,4.152,0.639,8.812-1.93,13.98c-2.363,4.752-5.551,8.203-9.562,10.355
		c-4.01,2.148-8.607,1.938-13.787-0.641l2.949-5.932c2.646,0.938,4.883,1.24,6.709,0.908c3.352-0.635,6.125-3.16,8.324-7.584
		c1.775-3.564,2.268-6.52,1.48-8.859c-0.789-2.34-2.221-4.025-4.291-5.059c-2.285-1.137-4.412-1.045-6.391,0.275
		c-1.275,0.871-3.482,3.186-6.619,6.943l-4.641,5.59c-2.238,2.693-4.393,4.562-6.463,5.6c-3.607,1.787-7.482,1.646-11.625-0.414
		c-5.162-2.564-7.941-6.23-8.34-10.996s0.605-9.57,3.016-14.418c2.812-5.65,6.492-9.34,11.043-11.061
		c4.529-1.738,9.295-1.322,14.297,1.244L631.359,468.718z"/>
	<path d="M638.429,529.369l-3.859,5.982l-43.725-28.229l3.863-5.98L638.429,529.369z"/>
	<path d="M591.621,578.535c-5.744-0.314-11.369-2.777-16.873-7.389c-5.955-4.99-9.641-10.65-11.053-16.98
		c-1.662-7.432,0.262-14.434,5.768-21.004c5.145-6.139,11.213-9.264,18.209-9.377c6.535,0.145,12.789,2.719,18.764,7.723
		c5.396,4.521,8.891,9.73,10.48,15.623c2.045,7.566,0.244,14.719-5.4,21.451C605.613,575.625,598.982,578.943,591.621,578.535z
		 M570.187,552.464c1.635,4.988,4.67,9.344,9.107,13.062c4.693,3.932,9.498,5.871,14.418,5.814c4.918-0.053,9.16-2.207,12.725-6.461
		c3.457-4.129,4.861-8.684,4.209-13.664c-0.652-4.982-3.736-9.789-9.266-14.42c-4.422-3.705-9.086-5.711-13.994-6.018
		c-4.908-0.311-9.463,2.045-13.664,7.061C569.732,542.601,568.554,547.476,570.187,552.464z"/>
	<path d="M581.234,599.464l-6.365,5.334l-46.898-15.561l27.006,32.229l-5.158,4.324L516.392,585.9l6.072-5.086l47.16,15.275
		l-26.973-32.191l5.16-4.322L581.234,599.464z"/>
</g>
<g>
	<path d="M270.875,633.693l-5.717,31.945c-0.672,3.754-0.521,6.998,0.453,9.74c1.433,4.129,4.643,6.637,9.631,7.533
		c5.981,1.07,10.41-0.232,13.289-3.906c1.554-1.996,2.663-4.861,3.33-8.588l5.718-31.947l7.071,1.266l-5.192,29.025
		c-1.139,6.357-2.872,11.096-5.203,14.211c-4.271,5.676-10.783,7.729-19.538,6.162c-8.755-1.566-14.141-5.748-16.154-12.549
		c-1.105-3.732-1.09-8.775,0.048-15.133l5.193-29.027L270.875,633.693z"/>
	<path d="M323.977,676.619c0.209,2.975,0.926,5.381,2.148,7.221c2.329,3.443,6.361,5.117,12.099,5.023
		c2.57-0.041,4.906-0.459,7.005-1.258c4.062-1.541,6.062-4.219,5.999-8.031c-0.047-2.859-0.943-4.883-2.695-6.068
		c-1.773-1.164-4.536-2.154-8.29-2.979l-6.915-1.494c-4.519-0.975-7.722-2.08-9.61-3.312c-3.267-2.137-4.935-5.389-5.006-9.748
		c-0.076-4.717,1.448-8.613,4.575-11.689c3.128-3.076,7.601-4.662,13.42-4.758c5.354-0.086,9.928,1.17,13.714,3.764
		c3.788,2.596,5.727,6.811,5.823,12.646l-6.683,0.107c-0.39-2.805-1.154-4.949-2.298-6.432c-2.124-2.707-5.675-4.02-10.653-3.938
		c-4.021,0.064-6.896,0.992-8.626,2.785c-1.73,1.793-2.576,3.854-2.539,6.189c0.041,2.572,1.11,4.438,3.208,5.598
		c1.374,0.74,4.472,1.643,9.292,2.707l7.161,1.562c3.451,0.758,6.126,1.818,8.019,3.193c3.271,2.402,4.945,5.939,5.02,10.607
		c0.095,5.812-1.899,10.004-5.982,12.572c-4.084,2.566-8.855,3.896-14.317,3.984c-6.365,0.104-11.376-1.484-15.031-4.76
		c-3.656-3.252-5.495-7.717-5.517-13.389L323.977,676.619z"/>
	<path d="M387.781,636.88l7.91-1.373l27.764,48.467l-7.676,1.334l-8.092-14.557l-20.297,3.527l-2.916,16.469l-7.184,1.248
		L387.781,636.88z M404.707,665.392l-11.936-21.471l-4.307,24.293L404.707,665.392z"/>
</g>
<circle cx="195.15" cy="637.21" r="5.287"/>
<circle cx="476.15" cy="637.209" r="5.288"/>
</svg>
