<?xml version="1.0" encoding="UTF-8"?>
<!-- Created with Inkscape (http://www.inkscape.org/) -->
<svg width="162.18mm" height="162.18mm" version="1.1" viewBox="0 0 162.18 162.18" xml:space="preserve" xmlns="http://www.w3.org/2000/svg" xmlns:serif="http://www.serif.com/"><defs><linearGradient id="_Linear1" x2="1" gradientTransform="matrix(0 -443 443 0 839.96 1503.2)" gradientUnits="userSpaceOnUse"><stop stop-color="#0066e1" offset="0"/><stop stop-color="#00189d" offset=".5"/><stop stop-color="#000050" offset=".75"/><stop stop-color="#000007" offset="1"/></linearGradient><linearGradient id="_Linear2" x2="1" gradientTransform="matrix(293.19 -423.32 423.32 293.19 620.38 1482.6)" gradientUnits="userSpaceOnUse"><stop stop-color="#ff4200" offset="0"/><stop stop-color="#ff5d0e" offset=".37"/><stop stop-color="#ffb039" offset=".74"/><stop stop-color="#ffffac" offset="1"/></linearGradient>
        
        
    </defs><g transform="translate(144.59 -116.54)" clip-rule="evenodd" stroke-linejoin="round" stroke-miterlimit="2"><rect x="17.801" y="120.79" width="169.53" height="167.42" fill="none" stroke-width=".23454"/><g transform="matrix(.2379 0 0 .23122 -247.99 -79.032)" fill-rule="evenodd" serif:id="アートボード1">
            <g transform="matrix(1.3607 0 0 1.4 -367.43 -557.33)">
                <circle cx="839.96" cy="1252.7" r="250.5" fill="url(#_Linear1)"/>
            </g>
            <g transform="matrix(1.1122 0 0 1.1443 -107.71 -207.84)" fill="#fff">
                <path d="m946.39 1062.2c1.191-1.19 3.554-2.41 8.026-3.78 3.436-1.06 7.788-1.82 8.391-1.92 0.889-0.14 4.029-0.38 2.777 1.49-0.827 1.23-4.341 3.42-9.587 5.23-1.578 0.54-6.709 2.49-7.702 2.44-0.302-0.01-0.599-0.07-0.884-0.17-1.817-0.62-1.832-2.48-1.021-3.29z"/>
            
            
                <path d="m933.95 1039.4c1.539 0.21 3.167 0.33 4.177 0.42 4.102 0.35 8.406 0.38 12.511 0.08 0.342-0.02 0.684-0.05 1.024-0.1 0.992-0.14 3.967-0.81 2.621-2.36-0.168-0.19-0.369-0.35-0.579-0.5-1.277-0.88-7.58-1.58-10.57-1.71-4.705-0.22-8.223 0.2-9.239 0.83-1.31 0.82-1.453 3.15 0.055 3.34z"/>
            
            
                <path d="m543.72 1342.8c-16.269-35.16-25.349-74.32-25.349-115.58 0-152.2 123.57-275.77 275.78-275.77 60.518 0 116.51 19.536 162.01 52.644l-46.887 1.85c-34.448-17.974-73.606-28.137-115.12-28.137-137.66 0-249.42 111.77-249.42 249.42 0 26.51 4.144 52.06 11.819 76.03 19.299-49.64 52.729-103.29 109.68-152.15 144.31-123.83 329.38-110.95 329.38-110.95 2.691 0.31 7.517 1.57 7.647 3.6 0.11 1.76-3.12 4.81-6.281 4.97 0 0-152.88 1.78-227.62 177.61-38.845 91.37-21.211 172.22-0.453 222.85 4.133 10.08 8.39 18.97 12.35 26.5 0.116 0.22 0.231 0.44 0.347 0.65 4.159 0.21 8.345 0.31 12.555 0.31 137.66 0 249.43-111.76 249.43-249.42 0-52.07-16-100.44-43.34-140.46l29.44-2.99c25.53 41.81 40.25 90.93 40.25 143.45 0 150.93-121.51 273.71-271.96 275.76-1.271 0.01-2.545 0.02-3.821 0.02-26.201 0-51.554-3.66-75.574-10.5-3.208-8.44-6.671-18.81-9.801-30.87-14.17-54.62-21.52-143.89 32.385-245.37 56.902-107.13 168.51-152.02 210.12-165.52 1.178-0.36 1.921-1.52 1.753-2.74-0.167-1.22-1.196-2.14-2.428-2.17-38.986 0.9-139.32 10.51-232.4 80.65-84.942 63.99-124.75 155.02-143.18 219.9-3.764 13.25-6.637 25.41-8.821 36.02-8.533-12.5-16.064-25.74-22.478-39.6z"/>
            </g>
            <g transform="matrix(1.1122 0 0 1.1443 -108.74 -208.24)">
                <path d="m680.97 1512.1c-38.805-15.59-73.693-38.9-102.76-68.02 0.607-12.46 1.872-26.23 4.121-41.08 1.67-11.04 3.882-22.67 6.77-34.79 1.665-6.99 3.555-14.15 5.696-21.45 13.575-46.32 32.945-100.6 77.142-151.56 63.479-73.2 139.48-112.72 195.56-131.07 42.595-13.94 74.834-14.63 74.834-14.63s-33.155 9.42-69.161 25.54c-28.534 12.78-47.618 28.61-62.821 38.61-30.095 19.79-85.311 83.95-105.96 128.85-32.446 70.56-36.031 146.56-32.326 202.08 0.76 11.39 1.827 21.91 3.014 31.35 1.908 15.17 4.127 27.54 5.886 36.17z" fill="url(#_Linear2)"/>
            </g>
            <g transform="matrix(1.1122 0 0 1.1443 -107.71 -207.84)" fill="#fff">
                <path d="m822.16 1203h22.692v22.2h37.642v-22.2h22.035v61.94h-22.035v-25.82h-37.642v25.82h-22.692z"/>
            
            
                <path d="m995.55 1201.7c7.947 0 14.387 6.45 14.387 14.39v12.89c0 1.87-1.03 3.49-2.55 4.35 1.52 0.85 2.55 2.48 2.55 4.34v12.89c0 7.94-6.44 14.39-14.387 14.39h-66.896c-0.446 0-0.886-0.02-1.321-0.06v-15.2h60.111v-9.28h-53.402v-13.92h53.402v-8.66h-60.111v-16.07c0.435-0.04 0.875-0.06 1.321-0.06z"/>
            </g>
        </g></g></svg>
