<svg viewBox="0 0 208 39" fill="none" xmlns="http://www.w3.org/2000/svg" class="css-1llyy6e">
  <path fill-rule="evenodd" clip-rule="evenodd" fill="currentColor" d="m31.846 9.671-2.78-2.77L35.994 0l2.78 2.77zM3.334 32.537c-4.842-6.19-4.411-15.145 1.301-20.837 6.184-6.16 16.21-6.16 22.394 0s6.184 16.15 0 22.31c-5.712 5.692-14.702 6.121-20.915 1.297l15.198-15.141-2.78-2.77zm51.1-18.592h3.991v17.792h-3.991zm24.32 10.257-7.17-10.257h-4.15v17.792h3.993v-12.48l6.12 8.974h2.39l6.198-8.974v12.48h4.018V13.945H86.03zm36.472-5.024v1.648c0 3.271-3.047 4.92-6.855 4.92h-5.279v5.991H99.1V13.945h9.244c4.125 0 6.882 1.832 6.882 5.233m-3.966.445c0-1.491-1.234-2.407-3.178-2.407h-4.99v5.494h4.99c1.787 0 3.178-.68 3.178-2.329zm24.506 5.233c0 2.616-2.259 3.898-4.755 3.898s-4.727-1.23-4.727-3.898V13.945h-3.965v11.356c0 4.5 3.912 6.698 8.745 6.698 4.702 0 8.72-2.224 8.72-6.698V13.945h-4.018zm16.878-10.911h-3.992v17.792h14.707v-3.244h-10.715zm25.451 7.3c-3.388-.419-4.202-.994-4.202-2.146 0-1.203 1.129-2.093 3.362-2.093 2.258 0 3.886.471 6.171 1.78l1.497-2.879c-2.521-1.596-4.779-2.197-7.668-2.197-3.836 0-7.538 1.857-7.485 5.442.025 3.035 2.153 4.422 6.96 5.18 3.676.55 4.359 1.126 4.359 2.33 0 1.203-.919 2.04-3.441 2.04-2.626 0-4.832-.916-6.724-2.198l-1.575 2.617c1.944 1.78 5.331 2.826 8.299 2.826 4.124 0 7.617-1.858 7.591-5.443-.027-3.453-2.837-4.71-7.144-5.259m19.426 7.248V24.28h8.326v-3.166h-8.326v-3.898h9.927v-3.271h-13.919v17.792H208v-3.244z"/>
</svg>
