<?xml version="1.0" encoding="UTF-8" standalone="no"?>
<svg
   xmlns:dc="http://purl.org/dc/elements/1.1/"
   xmlns:cc="http://creativecommons.org/ns#"
   xmlns:rdf="http://www.w3.org/1999/02/22-rdf-syntax-ns#"
   xmlns:svg="http://www.w3.org/2000/svg"
   xmlns="http://www.w3.org/2000/svg"
   xmlns:sodipodi="http://sodipodi.sourceforge.net/DTD/sodipodi-0.dtd"
   xmlns:inkscape="http://www.inkscape.org/namespaces/inkscape"
   version="1.1"
   x="0"
   y="0"
   viewBox="0 0 902 53.000001"
   xml:space="preserve"
   class="svg-neutron-icon-and-logo"
   id="svg36"
   sodipodi:docname="RocketLabNeutronLogo.svg"
   inkscape:version="1.0.1 (3bc2e813f5, 2020-09-07)"
   width="902"
   height="53"><metadata
     id="metadata23"><rdf:RDF><cc:Work
         rdf:about=""><dc:format>image/svg+xml</dc:format><dc:type
           rdf:resource="http://purl.org/dc/dcmitype/StillImage" /><dc:title></dc:title></cc:Work></rdf:RDF></metadata><defs
     id="defs40" /><sodipodi:namedview
     id="namedview38"
     pagecolor="#505050"
     bordercolor="#eeeeee"
     borderopacity="1"
     inkscape:pageshadow="0"
     inkscape:pageopacity="0"
     inkscape:pagecheckerboard="0"
     showgrid="false"
     inkscape:zoom="0.44487323"
     inkscape:cx="206.32506"
     inkscape:cy="238.94969"
     inkscape:window-width="1366"
     inkscape:window-height="706"
     inkscape:window-x="-8"
     inkscape:window-y="-8"
     inkscape:window-maximized="1"
     inkscape:current-layer="Layer_4_00000052087521802666872070000011180508599141530496_"
     inkscape:document-rotation="0" /><style
     id="style2">.st0{fill:#fff}</style><g
     id="Layer_2_00000039121416447848477710000000053074802523232395_"><g
       id="Layer_4_00000052087521802666872070000011180508599141530496_"><path
         class="st0"
         d="m 63.138188,43.104167 c 0.4,4.9 -3.1,9.1 -7.99999,9.6 h -1.3 c -2,0 -3.8,-0.3 -5.6,-0.8 -1.5,-0.6 -2.8,-1.5 -3.8,-2.8 l -30.9,-39.1 c -0.4,-0.7000003 -1.3,-1.0000003 -2.1,-1.0000003 -0.6,0 -1.1,0.1 -1.7000005,0.6 -0.6,0.4000003 -0.7,1.0000003 -0.7,1.7000003 v 40.5 H 0.33819751 V 9.7041667 c -0.1,-2.7 0.79999999,-5.2 2.69999999,-7 2,-1.7 4.5,-2.50000003 7.1000005,-2.40000003 2.1,0 4.1,0.3 6,1.00000003 1.7,0.8 3.2,2 4.2,3.5 l 29.6,38.3000003 c 0.6,0.7 1.4,1.1 2.2,1.1 1,0.1 1.8,-0.6 2,-1.5 V 1.5041667 h 8.79999 V 43.104167 Z M 198.83819,1.3041667 v 8.5 h -42.5 c -1.3,0 -1.8,0.6000003 -1.8,1.7000003 v 10.8 h 44 v 8.2 h -44 v 11 c -0.1,0.8 0.4,1.7 1.4,1.8 h 42.9 v 8.4 h -45.9 c -4.8,0 -7.1,-2.4 -7.1,-7 V 8.1041667 c 0,-4.5 2.4,-6.9 7.1,-6.9 h 45.9 z m 99.1,50.4000003 c -2.8,0 -5.5,-0.3 -8.1,-1 -2.1,-0.6 -3.9,-1.5 -5.5,-2.9 -1.4,-1.4 -2.5,-3.1 -3.1,-5 -0.7,-2.4 -1,-4.8 -1,-7.3 V 1.2041667 h 8.7 V 35.404167 c -0.1,2.1 0.6,4.3 2,5.9 1.3,1.3 3.5,1.8 6.4,1.8 h 23.5 c 2.9,0 5.2,-0.6 6.4,-1.8 1.5,-1.5 2.2,-3.8 2,-5.9 V 1.1041667 h 8.7 V 35.404167 c 0,5.6 -1.4,9.6 -4.1,12.3 -2.8,2.5 -7.3,3.9 -13.6,3.8 h -22.4 v 0.2 z m 178.3,-50.4000003 v 8.5 h -24.5 V 51.604167 h -8.7 V 9.8041667 h -24.5 v -8.5 z m 89.3,50.4000003 h -8.5 V 4.4041667 c 0,-2.1 1.1,-3.1 3.4,-3.1 h 35.9 c 2.7,-0.1 5.3,0.3 7.8,1.3 1.8,0.7 3.5,1.8 4.8,3.2 1.1,1.3 2.1,2.7 2.8,4.3000003 0.6,1.5 1,3.1 1,4.8 0,2.2 -0.4,4.6 -1.4,6.6 -1,2.1 -2.7,3.9 -4.6,5 2,0.7 3.6,2 4.8,3.6 1.3,2.1 1.8,4.6 1.7,7.1 v 12.3 c 0,0.7 0.1,1.4 0.1,2.1 h -8.7 c -0.1,-0.8 -0.1,-1.5 -0.1,-2.1 v -10.7 c 0.1,-2.2 -0.6,-4.3 -2.1,-5.9 -1.5,-1.3 -3.5,-1.8 -5.5,-1.8 h -31 v 20.6 z m 30.1,-28.3 c 1.4,0 2.8,-0.3 4.2,-0.8 1,-0.6 1.8,-1.3 2.5,-2.1 1,-1.3 1.4,-2.7 1.4,-4.2 0,-1.5 -0.6,-3.1 -1.5,-4.2 -0.7,-0.8 -1.5,-1.5 -2.5,-2 -1.3,-0.6000003 -2.7,-0.8000003 -4.1,-0.7000003 h -28.7 c -1,0 -1.4,0.4 -1.4,1.3000003 v 12.7 z m 105.2,-15.2000003 c 1.3,-1.1 2.7,-2.2 4.2,-3.2 1.4,-0.8 2.9,-1.5 4.6,-2.1 1.8,-0.6 3.6,-1 5.5,-1.3 2.2,-0.3 4.5,-0.4 6.9,-0.4 h 6.7 c 2.2,0 4.5,0.1 6.7,0.4 1.8,0.3 3.6,0.6 5.5,1.3 1.7,0.6 3.2,1.3 4.6,2.1 1.5,1 2.9,2 4.2,3.2 2.4,2.2000003 4.3,4.9000003 5.6,8.0000003 1.4,3.2 2.1,6.9 2,10.3 0,3.6 -0.7,7.1 -2,10.5 -1.3,3.1 -3.2,5.9 -5.6,8.1 -1.3,1.3 -2.7,2.2 -4.2,3.1 -1.4,0.8 -2.9,1.5 -4.6,2.1 -1.8,0.6 -3.6,1 -5.5,1.1 -2.2,0.3 -4.5,0.3 -6.7,0.3 h -6.7 c -2.2,0 -4.5,-0.1 -6.9,-0.4 -1.8,-0.3 -3.6,-0.6 -5.5,-1.1 -1.7,-0.6 -3.2,-1.1 -4.6,-2.1 -1.5,-0.8 -2.9,-2 -4.2,-3.1 -2.4,-2.2 -4.3,-5 -5.6,-8.1 -1.4,-3.4 -2.1,-6.9 -2,-10.5 0,-3.5 0.6,-7.1 2,-10.3 1.2,-3 3.1,-5.7 5.6,-7.9000003 z m 47.7,18.4000003 c 0,-2.5 -0.6,-5 -1.7,-7.3 -2,-3.9 -5.3,-7 -9.5,-8.4 -2.4,-0.7 -4.9,-1.1000003 -7.4,-1.0000003 h -9.8 c -2.5,-0.1 -5,0.3000003 -7.4,1.0000003 -1.8,0.6 -3.6,1.5 -5,2.8 -1.8,1.5 -3.4,3.4 -4.5,5.6 -1.1,2.2 -1.7,4.8 -1.5,7.3 0,4.3 1.7,8.4 4.6,11.6 1.5,1.7 3.4,2.9 5.5,3.8 2.7,1 5.3,1.4 8.1,1.4 h 10.3 c 2.8,0.1 5.6,-0.4 8.1,-1.4 2.1,-0.8 3.9,-2.1 5.5,-3.8 3.2,-3 4.7,-7.2 4.7,-11.6 z m 153.1,16.5 c 0.4,4.9 -3.1,9.1 -8,9.6 h -1.3 c -2,0 -3.8,-0.3 -5.6,-0.8 -1.5,-0.6 -2.8,-1.5 -3.8,-2.8 l -31,-39.1 c -0.4,-0.7000003 -1.3,-1.0000003 -2.1,-1.0000003 -0.6,0 -1.1,0.1 -1.7,0.6 -0.6,0.5000003 -0.7,1.0000003 -0.7,1.7000003 v 40.5 h -8.7 V 9.7041667 c -0.1,-2.7 0.8,-5.2 2.7,-7 2,-1.7 4.6,-2.50000003 7.1,-2.40000003 2.1,0 4.1,0.3 6,1.00000003 1.7,0.8 3.2,2 4.2,3.5 l 29.6,38.3000003 c 0.6,0.7 1.4,1.1 2.2,1.1 1,0.1 1.8,-0.6 2,-1.4 V 1.6041667 h 8.8 z"
         id="path4"
         style="fill:#000000;fill-opacity:1" /></g></g></svg>
