<svg xmlns="http://www.w3.org/2000/svg" id="Ebene_1" viewBox="0 0 500 500"><defs><style>      .st0 {        fill: #0d2e59;      }    </style></defs><path class="st0" d="M463.3,241.6c7.5,2.1,11.7,7.1,13.2,14,.9,5.2,1.4,10.4,1.3,15.6,0,3-.4,6-1.2,8.8-2.7,10.5-10,15.8-20.1,17.7-3.2.6-6.4.9-9.7.9-35,0-69.9,0-104.9,0-3,0-3,0-3-3v-104.1c0-3.1,0-3.1,3.1-3.1,32.7,0,65.5,0,98.2,0,4.1,0,8.2.5,12.2,1.3,10.9,2.3,17.8,9.1,19.3,20.3.8,6.2.5,12.7,0,18.9-.3,4.7-3,8.5-6.9,11.2-.4.3-.7.6-1.6,1.2ZM406.7,253.9h-38.1c-2.1,0-2.8.6-2.7,2.7.1,5.4,0,10.8,0,16.2,0,1.8.4,2.6,2.4,2.6,25,0,49.9,0,74.9,0,1.3,0,2.6-.2,3.8-.5,2.2-.5,3.8-1.8,4.1-4.2.2-2.3.3-4.6.3-7,0-8.4-1.3-9.7-9.7-9.7-11.7,0-23.4,0-35.1,0ZM403.2,233.7h33.3c1.6,0,3.2-.1,4.7-.4,3-.5,4.5-2.2,4.6-5.2.2-3.4.2-6.9,0-10.3-.1-3.1-1.8-4.8-4.8-5.3-1.6-.3-3.1-.4-4.7-.4-22.7,0-45.4,0-68.1,0-1.7,0-2.2.6-2.2,2.3,0,5.6.1,11.2,0,16.9,0,2.1.7,2.6,2.6,2.6,11.5,0,23.1,0,34.6,0h0Z"></path><path class="st0" d="M91.9,298.8c-13.3,0-26.5,0-39.8,0-3.7,0-7.3-.5-10.9-1.5-10.4-2.8-16.3-10.1-18-20.7-.6-3.7-.9-7.4-.9-11.1,0-14.4,0-28.8,0-43.2,0-4.1.3-8.2,1-12.2,2.2-11.6,9.5-18.6,21-20.6,3.3-.6,6.7-.9,10.1-.9,25.1,0,50.1,0,75.1,0,4,0,7.9.4,11.8,1.3,10.8,2.3,18,10.1,19.5,21.3.5,3.8.8,7.5.8,11.3,0,14.2.1,28.5,0,42.7,0,4.2-.4,8.3-1.1,12.4-2.3,12-10.7,19.7-22.9,20.6-6.5.5-13,.5-19.4.5-8.8,0-17.6,0-26.4,0h0ZM92.1,214.1h-32.2c-7.6,0-8.9,1.5-9,9.1v23.9c0,6.8,0,13.6,0,20.4,0,3.4,1.8,5.2,5.1,5.7,1.6.2,3.3.4,4.9.4h62.5c1.6,0,3.2-.2,4.7-.4,3-.5,4.5-2.2,4.8-5.3,0-.9.1-1.9.1-2.8v-42.1c0-7.2-1.4-8.7-8.6-8.7-10.8,0-21.6,0-32.4,0h0Z"></path><path class="st0" d="M184.6,243.6v-51.9c0-3,0-3.1,3-3.1h21.8c3.4,0,3.4,0,3.4,3.3,0,12.3,0,24.5,0,36.8,0,2.2.6,2.8,2.8,2.8,22.6,0,45.3,0,67.9,0,2.2,0,2.8-.7,2.8-2.9,0-12.4,0-24.8,0-37.2,0-2.2.6-2.9,2.8-2.9,7.9.1,15.9.1,23.8,0,2,0,2.6.7,2.6,2.7,0,35,0,70,0,104.9,0,1.9-.5,2.7-2.6,2.7-8-.1-16,0-24,0-2,0-2.6-.6-2.6-2.6,0-12.4,0-24.8,0-37.2,0-2.2-.6-2.9-2.8-2.9-22.6,0-45.3,0-67.9,0-2.3,0-2.8.8-2.7,2.9,0,12.3,0,24.7,0,37,0,2.2-.7,2.9-2.8,2.8-7.3-.1-14.6,0-21.9,0s-3.6,0-3.6-3.5v-51.8Z"></path></svg>