<svg width="35" height="34" viewBox="0 0 35 34" fill="none" xmlns="http://www.w3.org/2000/svg">
<path d="M8.71999 28.6799C9.54999 30.0799 10.71 31.2099 12.17 32.0299C13.58 32.8199 15.21 33.2599 17.07 33.2599C18.93 33.2599 20.87 33.0299 22.5 32.5899V28.1499C20.95 28.7199 18.96 29.0599 17.36 29.0199C15.76 28.9799 15.08 28.7999 14.25 28.3299C13.44 27.8699 12.83 27.2899 12.38 26.5299C11.93 25.7799 11.72 25.3099 11.72 23.1599V17.2199C11.72 15.4499 11.94 14.9199 12.39 14.1499C12.84 13.3799 13.45 12.7899 14.26 12.3399C15.08 11.8799 16.01 11.6599 17.09 11.6599H17.58C18.63 11.6599 19.54 11.8799 20.37 12.3499C21.19 12.8099 21.81 13.3999 22.27 14.1699C22.57 14.6699 22.76 15.1799 22.86 15.7299C22.91 16.0199 22.94 16.3299 22.94 16.6299C22.94 16.8199 22.9 17.2299 22.27 17.3299C21.64 17.4299 13.87 18.6399 13.87 18.6399V22.6499C13.87 22.6499 21.16 21.4899 22.62 21.2899C24.07 21.0899 25.36 20.4599 26.08 19.6299C26.8 18.7999 27.23 17.8299 27.14 16.0299C27.07 14.5299 26.47 12.9299 25.92 11.9999C25.08 10.5899 23.91 9.45992 22.44 8.63992C20.98 7.82992 19.35 7.41992 17.59 7.41992H17.1C15.29 7.41992 13.64 7.82992 12.19 8.64992C10.73 9.46992 9.56999 10.5999 8.73999 12.0199C7.90999 13.4399 7.48999 14.7799 7.48999 17.3299V23.1299C7.48999 26.3499 8.08999 27.5899 8.73999 28.6799" fill="#050D73"/>
<path d="M32.45 8.28C30.95 5.71 28.86 3.66 26.23 2.18C23.73 0.78 20.58 0 17.35 0C14.12 0 10.97 0.77 8.47 2.18C5.84 3.66 3.75 5.71 2.25 8.27C0.76 10.84 0 13.66 0 16.64C0 19.62 0.76 22.43 2.26 25C2.29 25.07 2.98 26.22 4.02 27.54C4.09 27.63 4.24 27.58 4.24 27.46C4.24 25.88 4.24 20.43 4.24 18.25C4.24 13.99 4.8 12.32 5.92 10.42C7.03 8.51 8.59 6.99 10.55 5.88C12.43 4.83 14.84 4.24 17.35 4.24C19.86 4.24 22.28 4.82 24.15 5.87C26.11 6.97 27.67 8.5 28.79 10.41C29.9 12.32 30.47 14.41 30.47 16.63C30.47 18.85 29.91 20.94 28.79 22.85C28.02 24.16 27.05 25.29 25.88 26.23V31.27C26 31.21 26.12 31.14 26.24 31.08C28.87 29.6 30.96 27.55 32.46 24.99C33.96 22.43 34.72 19.62 34.72 16.63C34.72 13.64 33.96 10.84 32.46 8.28" fill="#050D73"/>
</svg>
