<?xml version="1.0" encoding="UTF-8"?>
<svg width="3800" height="610" fill="none" version="1.1" xmlns="http://www.w3.org/2000/svg">
 <title>Voyager Technologies, Inc. (Voyager) logo</title>
 <g transform="translate(26.9758 -702.5)" fill="#000">
  <g>
   <path d="m1.58945 740.486 102.017 154.566c1.379 2.095 3.723 3.355 6.231 3.355h223.084c3.268 0 4.31-4.408 1.379-5.873l-324.081-161.785c-6.15487-3.08286-12.4183 3.98384-8.62985 9.73707zm117.649 178.99 47.513 73.349c2.062 3.191 6.198 4.32 9.596 2.627l157.942-78.722c2.931-1.455 1.889-5.873-1.379-5.873h-208.983c-4.429 0-7.088 4.907-4.689 8.619zm118.744 168.385 107.672-156.238c1.824-2.638-1.074-5.97-3.94-4.526l-156.466 78.765c-3.984 2.008-5.33 7.045-2.877 10.768l46.883 71.134c2.052 3.115 6.611 3.159 8.728.087zm127.45 192.506v-343.772c0-3.04-3.929-4.266-5.655-1.759l-115.097 167.365c-1.715 2.486-1.759 5.775-.109 8.304l112.329 172.38c2.519 3.864 8.521 2.084 8.521-2.529z"/>
   <path d="m742.66 740.486-102.017 154.567c-1.379 2.095-3.723 3.354-6.231 3.354h-223.084c-3.267 0-4.309-4.407-1.379-5.873l324.081-161.785c6.166-3.07201 12.418 3.98384 8.63 9.73705zm-117.648 178.991-47.513 73.348c-2.063 3.192-6.199 4.321-9.596 2.627l-157.943-78.721c-2.931-1.455-1.888-5.873 1.379-5.873h208.983c4.429 0 7.089 4.907 4.69 8.619zm-118.745 168.385-107.672-156.238c-1.824-2.638 1.075-5.97 3.94-4.527l156.467 78.765c3.983 2.008 5.329 7.045 2.876 10.769l-46.883 71.133c-2.052 3.116-6.611 3.159-8.728.087zm-127.45 192.505v-343.771c0-3.04 3.929-4.267 5.655-1.759l115.098 167.365c1.715 2.486 1.758 5.775.108 8.304l-112.329 172.38c-2.518 3.864-8.521 2.084-8.521-2.53z"/>
  </g>
  <g>
   <path d="m1243.34 892.061h-6.59l-4.12 4.943-143.36 218.326-142.538-217.502-4.12-4.944h-60.97l12.358 18.949 173.85 263.639c3.29 4.943 8.24 9.063 14.83 11.534h17.3c5.77-3.295 11.54-6.591 15.66-12.358l173.02-263.638 12.36-18.949h-55.2z"/>
   <path d="m1628.12 1038.71c0 36.25-9.06 60.142-28.01 74.972-18.13 14.83-51.91 24.716-95.58 24.716s-74.98-8.239-95.58-24.716c-18.95-15.653-28.01-39.546-28.01-74.972 0-35.427 9.06-59.319 28.01-74.972 19.78-15.654 51.91-24.717 95.58-24.717s74.98 8.239 95.58 24.717c18.12 15.653 28.01 39.545 28.01 74.972zm5.77-114.518c-28.84-23.893-72.51-36.251-127.71-36.251-55.21 0-98.87 12.358-128.53 36.251-30.49 25.54-46.97 63.438-46.97 114.518s15.66 89.802 46.14 114.518c28.84 23.892 72.51 36.25 129.36 36.25s49.43-2.471 72.5-8.238c19.78-4.944 38.73-14.83 54.38-27.188 30.49-25.54 46.14-63.438 46.14-114.518s-15.65-88.978-46.14-114.518"/>
   <path d="m2063.15 892.061-147.48 133.467-148.31-133.467h-76.62l198.56 179.603v113.695h51.09v-113.695l198.56-179.603h-76.62z"/>
   <path d="m2308.68 903.595c-1.65-2.472-3.3-4.12-4.94-5.767-4.95-4.12-10.71-5.767-17.31-5.767-9.06 0-18.12 4.119-23.07 12.358l-28.01 42.017-60.15 89.802-86.51 130.172-12.36 18.949h61.8l4.12-4.944 143.36-217.502 133.48 203.497 2.47 3.295 7.41 11.534 4.12 4.943h60.97l-12.36-18.949-173.84-262.814z"/>
   <path d="m2659.67 892.061c-56.02 0-102.16 45.312-102.16 101.336v191.962h312.26v-176.309h-168.9v51.08h117v73.325h-208.46v-138.411c0-28.011 23.07-51.08 51.09-51.08h213.39v-51.08h-214.22z"/>
   <path d="m2971.94 892.061h-12.36v293.298h313.09v-51.08h-262.01v-72.501h262.01v-51.08h-262.01v-66.734h262.01v-51.903z"/>
   <path d="m3719.24 1163.94-126.88-101.336c46.96 2.472 86.51-33.779 88.98-79.915 2.47-46.137-33.78-86.507-80.75-88.979h-243.88v50.257h234c18.12 0 33.78 14.829 34.6 32.954 0 18.126-14.83 33.779-32.95 34.603h-235.65v173.837h51.09v-122.757h101.34l149.95 120.285 3.3 2.472h83.22z"/>
  </g>
 </g>
</svg>