<?xml version="1.0" encoding="UTF-8" standalone="no"?>
<!-- Created with Inkscape (http://www.inkscape.org/) -->

<svg
   xmlns:dc="http://purl.org/dc/elements/1.1/"
   xmlns:cc="http://creativecommons.org/ns#"
   xmlns:rdf="http://www.w3.org/1999/02/22-rdf-syntax-ns#"
   xmlns:svg="http://www.w3.org/2000/svg"
   xmlns="http://www.w3.org/2000/svg"
   xmlns:sodipodi="http://sodipodi.sourceforge.net/DTD/sodipodi-0.dtd"
   xmlns:inkscape="http://www.inkscape.org/namespaces/inkscape"
   width="54.919083mm"
   height="56.916668mm"
   viewBox="0 0 54.919083 56.916667"
   version="1.1"
   id="svg8"
   inkscape:version="0.92.4 (5da689c313, 2019-01-14)"
   sodipodi:docname="Vulcan.svg">
  <defs
     id="defs2" />
  <sodipodi:namedview
     id="base"
     pagecolor="#ffffff"
     bordercolor="#666666"
     borderopacity="1.0"
     inkscape:pageopacity="0.0"
     inkscape:pageshadow="2"
     inkscape:zoom="1.2403374"
     inkscape:cx="112.63283"
     inkscape:cy="119.39917"
     inkscape:document-units="mm"
     inkscape:current-layer="layer1"
     showgrid="false"
     fit-margin-right="2"
     fit-margin-top="2"
     fit-margin-left="2"
     fit-margin-bottom="2"
     inkscape:window-width="983"
     inkscape:window-height="752"
     inkscape:window-x="735"
     inkscape:window-y="39"
     inkscape:window-maximized="0" />
  <metadata
     id="metadata5">
    <rdf:RDF>
      <cc:Work
         rdf:about="">
        <dc:format>image/svg+xml</dc:format>
        <dc:type
           rdf:resource="http://purl.org/dc/dcmitype/StillImage" />
        <dc:title></dc:title>
      </cc:Work>
    </rdf:RDF>
  </metadata>
  <g
     inkscape:label="Layer 1"
     inkscape:groupmode="layer"
     id="layer1"
     transform="translate(-76.032563,-140.57295)">
    <g
       transform="matrix(0.96225038,0,0,0.96225038,10.019217,15.496841)"
       id="layer1-7"
       inkscape:label="Layer 1">
      <g
         inkscape:label="Layer 1"
         id="layer1-0"
         transform="matrix(0.66666667,0,0,0.66666667,37.860288,56.621691)">
        <g
           transform="matrix(1.9535354,0,0,1.9535354,-103.95398,-140.61384)"
           id="layer1-2"
           inkscape:label="Layer 1">
          <g
             transform="translate(-6.7522596,2.4440589)"
             id="g21">
            <path
               sodipodi:nodetypes="cccsccccccsccccccccc"
               inkscape:connector-curvature="0"
               id="path25"
               d="m 104.01513,169.66133 -2.11453,-0.0423 -0.39492,-0.93134 c -0.21721,-0.51223 -2.422802,-5.63668 -4.901324,-11.38766 -2.478522,-5.75099 -4.83374,-11.21834 -5.233816,-12.14967 -1.304258,-3.03617 -3.553711,-7.41026 -4.613728,-8.97147 -0.190899,-0.28116 -0.626713,-0.82552 -0.968476,-1.2097 l -0.621388,-0.6985 9.65642,-0.0129 c -0.263093,0.85344 -0.269495,1.45997 -0.223318,2.21425 0.05687,0.92902 0.493019,2.75814 1.008611,4.22995 0.291686,0.83265 2.018716,4.88171 4.582629,10.74406 l 0.64276,1.46968 -0.36285,0.60466 c -0.547032,0.91157 -0.81635,1.53704 -1.044165,2.42499 -0.794453,3.09649 0.233135,6.41709 3.078595,9.94833 0.75393,0.93564 2.20266,2.44647 3.11177,3.24515 0.32362,0.28432 0.57127,0.52772 0.55033,0.5409 -0.0209,0.0132 -0.98961,0.005 -2.1526,-0.0184 z"
               style="fill:#8b8b8d;stroke-width:0.08466667" />
            <path
               inkscape:connector-curvature="0"
               id="path23"
               d="m 106.91915,168.8709 c -2.72278,-2.46199 -4.69837,-5.16851 -5.5648,-7.62364 -0.48186,-1.36541 -0.55906,-1.8301 -0.55031,-3.31226 0.007,-1.2109 0.0322,-1.43554 0.23552,-2.11667 0.48447,-1.62255 1.26374,-2.9176 2.5871,-4.2994 2.0795,-2.17135 5.09995,-4.06203 9.234,-5.78015 3.83008,-1.59177 6.09764,-3.05105 7.56319,-4.86726 1.06799,-1.32353 1.65425,-2.8574 1.68931,-4.41982 0.0102,-0.45354 0.0376,-0.82421 0.0608,-0.82371 0.0233,5.1e-4 0.29304,0.35253 0.59947,0.78229 1.48126,2.07743 2.3384,3.88435 2.79693,5.89615 0.2475,1.08589 0.30169,2.86985 0.12239,4.02923 -0.47066,3.0434 -2.20693,6.03669 -5.183,8.93539 -1.71491,1.67032 -3.15368,2.79508 -5.21237,4.07479 -2.70524,1.68162 -3.98012,2.62019 -5.1499,3.79138 -1.75447,1.75659 -2.35808,3.22061 -2.2604,5.48246 0.0247,0.57291 0.0138,1.04165 -0.0244,1.04165 -0.0382,0 -0.46277,-0.35569 -0.94356,-0.79043 z m 4.73593,-24.37674 c 1.29642,-1.32394 2.00638,-2.28849 2.56547,-3.48546 0.84704,-1.81342 0.86812,-3.3191 0.0744,-5.31144 -1.01972,-2.55956 -0.64678,-4.79708 1.06839,-6.40995 0.75418,-0.7092 1.35192,-1.06385 2.39068,-1.41845 0.74672,-0.2549 2.0514,-0.49533 2.04791,-0.3774 -7.6e-4,0.0265 -0.15806,0.2006 -0.34951,0.38687 -0.50483,0.49115 -0.83447,1.2279 -0.83341,1.86266 10e-4,0.85616 0.27601,1.5492 1.05905,2.67311 0.9862,1.41549 1.42199,2.63198 1.42337,3.97323 0.002,1.71952 -0.68003,3.12248 -2.24303,4.61556 -1.61256,1.54041 -3.85969,2.8247 -6.82185,3.89883 -0.5697,0.20659 -1.06113,0.37561 -1.09207,0.37561 -0.0309,0 0.28884,-0.35243 0.71063,-0.78317 z"
               style="fill:#c31e32;stroke-width:0.08466667" />
          </g>
        </g>
      </g>
    </g>
  </g>
</svg>
